<?xml version="1.0" encoding="UTF-8"?>
<!DOCTYPE svg PUBLIC "-//W3C//DTD SVG 1.1//EN" "http://www.w3.org/Graphics/SVG/1.1/DTD/svg11.dtd">
<!-- Creator: CorelDRAW -->
<svg xmlns="http://www.w3.org/2000/svg" xml:space="preserve" width="46.5666mm" height="46.5666mm" version="1.1" style="shape-rendering:geometricPrecision; text-rendering:geometricPrecision; image-rendering:optimizeQuality; fill-rule:evenodd; clip-rule:evenodd"
viewBox="0 0 4656.66 4656.66"
 xmlns:xlink="http://www.w3.org/1999/xlink"
 xmlns:xodm="http://www.corel.com/coreldraw/odm/2003">
 <defs>
  <style type="text/css">
   <![CDATA[
    .fil0 {fill:#061F36}
    .fil1 {fill:white;fill-rule:nonzero}
   ]]>
  </style>
 </defs>
 <g id="Camada_x0020_1">
  <metadata id="CorelCorpID_0Corel-Layer"/>
  <circle class="fil0" cx="2328.33" cy="2328.33" r="2116.66"/>
  <g id="_2417679550592">
   <path class="fil1" d="M2224.21 929.07c-481.7,48.63 -868.45,416.28 -940.82,894.5 -4.63,31.27 -8.69,60.22 -8.69,63.69 0,4.05 -19.68,7.53 -53.84,9.26 -159.22,8.69 -298.75,115.22 -356.06,272.12l-15.64 42.26 -1.73 198.01c-2.32,226.37 -0.58,236.22 41.68,323.06 55.58,112.9 158.64,190.48 284.28,214.22 102.47,19.11 209.58,15.63 248.95,-8.69 39.37,-24.31 37.63,-2.31 37.63,-504.85 0,-536.71 3.48,-587.08 44.01,-713.87 92.05,-286.59 330.01,-507.75 621.23,-578.39 354.9,-86.26 719.07,57.9 926.34,366.49 31.84,46.9 82.21,152.27 101.32,211.9 40.53,126.79 44,177.16 44,715.03 0,515.27 -2.89,481.69 46.9,508.33 24.89,13.31 28.37,13.89 132.58,11 95.53,-2.32 111.74,-4.05 153.43,-17.37 64.84,-21.42 114.63,-52.11 165.58,-102.48 35.32,-35.31 49.21,-54.42 71.21,-98.42 44,-89.74 45.16,-99 42.85,-325.96l-1.74 -198.01 -15.63 -42.26c-56.74,-156.32 -197.43,-263.43 -356.06,-272.12 -34.16,-1.73 -53.85,-5.21 -53.85,-9.26 0,-22.58 -19.68,-130.85 -33,-179.48 -130.84,-497.91 -611.39,-830.23 -1124.93,-778.71l0 0z"/>
   <path class="fil1" d="M1236.49 3076.46c13.32,82.79 68.9,203.21 129.11,277.9 123.9,154 306.27,237.37 519.91,237.37l46.32 0 0 -54.42 0 -53.84 -75.27 -3.48c-116.37,-5.79 -195.69,-30.1 -283.69,-88 -110,-71.79 -186.43,-180.06 -222.32,-312.64l-5.79 -23.16 -56.16 -1.16 -55.58 -0.58 3.47 22.01 0 0z"/>
   <path class="fil1" d="M2154.15 3356.67c-54.42,19.69 -95.53,60.22 -115.79,112.9 -9.84,25.48 -11.58,41.11 -9.84,75.85 4.63,73.53 42.84,130.27 108.84,161.53l31.85 15.05 159.21 0 159.22 0 31.84 -15.05c66,-31.26 104.22,-88 108.85,-161.53 4.05,-75.85 -31.27,-139.53 -97.85,-176.59l-31.26 -17.36 -162.11 -1.16c-122.74,-1.16 -167.32,0 -182.96,6.37l0 -0.01z"/>
  </g>
 </g>
</svg>
