<?xml version="1.0" encoding="UTF-8"?>
<!DOCTYPE svg PUBLIC "-//W3C//DTD SVG 1.1//EN" "http://www.w3.org/Graphics/SVG/1.1/DTD/svg11.dtd">
<!-- Creator: CorelDRAW -->
<svg xmlns="http://www.w3.org/2000/svg" xml:space="preserve" width="46.5666mm" height="46.5666mm" version="1.1" style="shape-rendering:geometricPrecision; text-rendering:geometricPrecision; image-rendering:optimizeQuality; fill-rule:evenodd; clip-rule:evenodd"
viewBox="0 0 4656.66 4656.66"
 xmlns:xlink="http://www.w3.org/1999/xlink"
 xmlns:xodm="http://www.corel.com/coreldraw/odm/2003">
 <defs>
  <style type="text/css">
   <![CDATA[
    .fil0 {fill:#061F36}
    .fil1 {fill:white;fill-rule:nonzero}
   ]]>
  </style>
 </defs>
 <g id="Camada_x0020_1">
  <metadata id="CorelCorpID_0Corel-Layer"/>
  <circle class="fil0" cx="2328.33" cy="2328.33" r="2116.66"/>
  <g id="_2417682629888">
   <path class="fil1" d="M2275.39 1153.14c-94.22,15.88 -189.51,104.29 -214.92,200.63 -11.12,41.82 -9.53,113.29 3.18,154.58 34.93,113.28 145.57,194.8 264.68,194.8 119.11,0 229.75,-81.52 264.68,-194.8 12.71,-41.29 14.3,-112.76 3.18,-154.58 -25.94,-98.99 -120.7,-184.75 -220.22,-200.63 -39.7,-6.35 -59.82,-6.35 -100.58,0z"/>
   <path class="fil1" d="M1322.54 1522.11c-54,20.64 -87.35,46.58 -114.35,88.93 -63.52,98.99 -34.41,232.92 64.06,296.45 68.28,43.41 158.28,45 228.15,4.23 25.94,-15.35 66.17,-56.64 78.88,-80.99 33.88,-65.64 31.76,-152.46 -5.3,-214.92 -19.05,-33.35 -66.7,-74.11 -102.16,-87.88 -40.77,-15.88 -114.88,-19.05 -149.28,-5.82z"/>
   <path class="fil1" d="M3193.31 1525.29c-38.11,14.29 -56.11,26.46 -85.22,57.7 -38.12,41.29 -54.53,84.7 -54.53,143.99 0,60.34 16.94,103.75 56.64,146.1 71.47,76.23 185.81,90.52 274.21,34.41 34.94,-22.76 58.76,-50.82 78.88,-93.17 14.82,-31.23 16.41,-39.17 16.41,-87.34 0,-48.18 -1.59,-56.11 -16.41,-87.35 -28.06,-58.76 -71.46,-97.93 -131.28,-118.05 -38.12,-13.23 -98.47,-11.11 -138.7,3.71l0 0z"/>
   <path class="fil1" d="M2058.35 1821.73c-59.29,18 -88.4,33.88 -124.4,67.23 -34.41,32.29 -56.64,69.88 -68.82,116.46 -10.05,37.59 -11.64,538.37 -2.11,556.89 3.7,6.36 42.88,66.7 87.34,134.99l81.52 123.34 0 333.5c0,219.69 2.12,337.21 5.3,344.09 5.29,9.53 14.29,10.06 291.15,10.06 276.86,0 285.86,-0.53 291.15,-10.06 3.18,-6.88 5.3,-124.4 5.3,-344.09l0 -333.5 81.52 -123.34c44.46,-68.29 83.64,-128.63 87.34,-134.99 9.53,-18.52 7.94,-519.3 -2.11,-556.89 -16.41,-62.99 -58.76,-120.69 -111.17,-151.4 -27,-15.88 -115.4,-44.99 -136.05,-44.99 -9.53,0 -17.47,4.23 -22.23,11.64 -3.71,6.88 -43.94,113.29 -88.41,236.63 -62.46,172.04 -84.17,226.04 -93.16,231.86 -25.94,16.94 -30.18,8.47 -117.52,-231.86 -44.47,-123.34 -84.7,-229.75 -88.41,-236.63 -9.53,-14.82 -24.35,-14.82 -76.23,1.06l0 0z"/>
   <path class="fil1" d="M2275.39 1814.85c-28.58,11.64 -28.58,37.58 0,81.52l21.18 32.29 -9 79.41 -9 79.4 17.47 48.71c9.53,26.46 20.64,51.34 24.88,54.52 12.18,10.06 20.64,-2.12 39.7,-54.52l17.47 -48.71 -9 -79.4 -9 -79.41 21.18 -32.29c29.11,-44.99 28.58,-70.4 -1.59,-81.52 -18.53,-7.41 -86.29,-6.88 -104.28,0l-0.01 0z"/>
   <path class="fil1" d="M1190.19 2001.72c-74.64,25.4 -113.28,56.64 -143.98,115.4l-17.47 33.35 -1.59 203.8 -1.59 203.81 58.76 88.93 58.23 88.94 0 219.68c0,239.28 0.53,246.16 29.65,265.22 13.76,8.47 31.23,9.53 205.92,11.11 213.33,1.59 223.92,0.53 244.57,-30.17l12.17 -18 0 -223.39 0 -223.39 54 -81.52c29.64,-45 56.64,-90 60.35,-100.06 8.46,-23.29 10.05,-324.5 2.11,-375.84 -10.06,-61.94 -48.7,-121.76 -97.4,-150.34 -28.06,-16.42 -99.52,-40.24 -120.7,-40.24 -20.11,0 -28.58,4.77 -90.52,51.35 -31.23,23.82 -53.99,37.59 -58.23,35.47 -3.17,-2.12 -24.35,-17.47 -46.58,-34.41 -76.76,-58.23 -86.29,-60.88 -147.69,-39.7l-0.01 0z"/>
   <path class="fil1" d="M3061.5 2004.36c-23.29,7.94 -51.88,20.65 -64.05,28.06 -46.59,29.64 -82.58,86.81 -92.11,147.16 -7.94,51.35 -6.35,352.56 2.12,375.85 3.7,10.06 30.7,55.05 60.34,100.05l54 81.52 0 223.4 0 223.39 12.17 18c20.65,30.7 31.24,31.76 244.57,30.17 174.69,-1.59 192.16,-2.65 205.92,-11.12 29.12,-19.05 29.65,-25.94 29.65,-265.21l0 -219.69 58.23 -88.93 58.76 -88.94 -1.59 -203.8 -1.59 -203.81 -17.46 -33.35c-31.24,-59.81 -75.17,-93.69 -150.87,-117.52 -57.18,-17.99 -64.59,-15.88 -140.82,41.82 -22.23,16.94 -43.4,32.29 -46.58,34.41 -4.23,2.12 -27,-11.64 -58.23,-35.46 -28.59,-21.71 -57.17,-41.82 -63.52,-45 -18,-9.53 -42.88,-7.41 -88.94,9l0 0z"/>
  </g>
 </g>
</svg>
