<?xml version="1.0" standalone="no"?>
<!DOCTYPE svg PUBLIC "-//W3C//DTD SVG 20010904//EN"
 "http://www.w3.org/TR/2001/REC-SVG-20010904/DTD/svg10.dtd">
<svg version="1.0" xmlns="http://www.w3.org/2000/svg"
 width="512.000000pt" height="512.000000pt" viewBox="0 0 512.000000 512.000000"
 preserveAspectRatio="xMidYMid meet">
<metadata>
Created by potrace 1.16, written by Peter Selinger 2001-2019
</metadata>
<g transform="translate(0.000000,512.000000) scale(0.100000,-0.100000)"
fill="#000000" stroke="none">
<path d="M2035 4474 c-91 -13 -239 -50 -328 -80 -455 -159 -822 -526 -981
-981 -68 -198 -81 -281 -81 -533 0 -182 4 -241 19 -310 107 -494 399 -882 836
-1114 361 -190 830 -231 1226 -106 136 43 320 135 433 215 l94 67 486 -485
c267 -267 496 -490 508 -496 12 -6 46 -11 75 -11 97 0 158 61 158 158 0 29 -5
63 -11 75 -6 12 -229 241 -496 508 l-485 486 67 94 c80 113 172 297 215 433
98 312 95 684 -9 996 -155 464 -520 838 -976 1000 -188 66 -279 82 -510 85
-115 2 -223 1 -240 -1z m425 -340 c178 -32 366 -110 509 -211 92 -65 238 -210
305 -302 156 -218 236 -468 236 -741 0 -353 -130 -660 -383 -907 -109 -106
-193 -167 -313 -228 -178 -91 -368 -136 -574 -136 -206 0 -396 45 -574 136
-120 61 -204 122 -313 228 -253 247 -383 554 -383 907 0 353 130 660 383 907
108 105 193 167 312 228 245 125 526 167 795 119z"/>
</g>
</svg>
