<?xml version="1.0" encoding="UTF-8"?>
<!DOCTYPE svg PUBLIC "-//W3C//DTD SVG 1.1//EN" "http://www.w3.org/Graphics/SVG/1.1/DTD/svg11.dtd">
<!-- Creator: CorelDRAW -->
<svg xmlns="http://www.w3.org/2000/svg" xml:space="preserve" width="46.5666mm" height="46.5666mm" version="1.1" style="shape-rendering:geometricPrecision; text-rendering:geometricPrecision; image-rendering:optimizeQuality; fill-rule:evenodd; clip-rule:evenodd"
viewBox="0 0 4656.66 4656.66"
 xmlns:xlink="http://www.w3.org/1999/xlink"
 xmlns:xodm="http://www.corel.com/coreldraw/odm/2003">
 <defs>
  <style type="text/css">
   <![CDATA[
    .fil0 {fill:#061F36}
    .fil1 {fill:white;fill-rule:nonzero}
   ]]>
  </style>
 </defs>
 <g id="Camada_x0020_1">
  <metadata id="CorelCorpID_0Corel-Layer"/>
  <circle class="fil0" cx="2328.33" cy="2328.33" r="2116.66"/>
  <g id="projeto.svg">
   <g>
    <path class="fil1" d="M1890.67 889.31c-2.12,1.59 -3.71,97.05 -3.71,211.07 0,119.32 -2.12,220.08 -5.3,236.52 -13.79,71.06 -60.46,132.57 -125.69,164.92l-36.06 17.5 -234.39 2.66c-154.85,1.59 -236.52,4.77 -240.23,8.48 -3.72,3.71 -4.78,295.38 -4.25,967.82l1.59 961.98 17.5 35.53c21.22,42.96 58.87,79.02 99.7,93.87 28.64,11.13 34.47,11.13 897.29,11.13 548.34,0 875.01,-2.12 886.67,-5.3 32.35,-9.02 75.84,-38.71 96.52,-66.29 40.3,-53.56 38.18,-29.7 40.3,-452.88 1.07,-280.01 0,-380.24 -4.77,-385.54 -14.85,-18.03 -28.63,-7.42 -155.91,119.32l-127.27 126.74 -197.81 64.7c-108.71,35 -201.52,63.64 -206.29,62.58 -4.77,-1.06 -13.26,-7.96 -18.56,-15.38l-10.61 -13.79 64.7 -198.33 64.7 -198.34 296.44 -297.5 296.44 -296.98 -1.06 -506.45 -1.59 -505.91 -12.73 -31.82c-15.37,-37.65 -54.62,-79.55 -93.33,-98.11l-26.52 -13.26 -626.29 -1.59c-344.17,-0.53 -627.36,0.53 -629.48,2.65l0 0zm932.82 932.82c10.6,10.08 12.72,16.44 10.07,27.57 -6.36,28.11 0.53,27.58 -305.46,27.58l-285.3 0 -7.96 -11.67c-12.19,-17.5 -10.07,-33.94 5.31,-46.13 13.78,-11.14 19.09,-11.14 292.2,-11.14l277.88 0 13.26 13.79 0 0zm0 397.73c10.6,10.08 12.72,16.44 10.07,27.58 -1.59,7.95 -6.89,17.5 -12.19,21.21 -6.9,4.77 -125.16,6.36 -565.31,5.3l-556.83 -1.59 -7.96 -13.78c-9.54,-16.97 -4.24,-38.19 11.14,-46.14 8.49,-3.71 174.47,-5.83 560.01,-5.83l547.81 -0.54 13.25 13.79 0.01 0zm-768.42 315.01c18.56,37.65 22.8,86.97 21.74,270.99 -1.06,176.06 1.59,199.39 19.62,192.5 3.71,-1.59 23.34,-29.17 43.49,-61.52 41.36,-67.35 73.18,-99.69 96.52,-99.69 20.15,0 42.95,27.04 56.21,65.75 21.74,63.64 51.97,87.5 115.61,92.28 23.33,1.59 41.89,5.3 47.72,10.6 11.14,9.55 11.67,32.35 1.59,46.67 -6.89,9.02 -14.31,10.08 -65.22,10.08 -82.2,0 -104.48,-13.26 -143.72,-88.03 -8.48,-15.38 -19.09,-29.17 -23.33,-30.23 -4.24,-0.53 -18.03,14.32 -32.88,35.53 -28.64,42.42 -59.93,72.65 -85.91,83.26 -24.4,10.07 -35.53,9.54 -51.97,-3.71 -35,-27.58 -46.67,-82.73 -46.14,-225.92 0,-114.01 -1.59,-120.91 -26.51,-117.2 -9.55,1.07 -17.51,16.97 -47.73,95.99 -20.15,51.97 -45.61,114.55 -57.28,138.94 -44.01,93.87 -89.62,140.54 -137.88,140.54 -58.86,0 -94.39,-47.2 -55.15,-72.66 10.61,-6.89 16.44,-7.42 31.82,-2.65 49.32,15.38 73.18,-22.27 169.17,-266.75 63.11,-160.68 112.96,-243.94 144.77,-240.23 10.61,1.07 16.44,7.43 25.46,25.46z"/>
    <path class="fil1" d="M1546.5 1180.98c-130.99,130.99 -239.17,241.83 -240.76,247.13 -1.59,5.3 0,13.26 3.71,17.5 5.31,6.89 33.41,7.42 203.11,6.36 191.44,-1.59 197.28,-2.12 218.49,-13.26 12.19,-6.36 31.82,-22.8 43.48,-36.06 37.12,-42.42 38.19,-49.31 38.19,-259.85 0,-191.44 -1.07,-198.87 -20.69,-198.87 -4.77,0 -115.07,106.6 -245.53,237.05z"/>
    <path class="fil1" d="M3716.53 1711.3c-4.24,1.59 -216.37,210.53 -470.39,465.08 -307.58,306.52 -462.96,465.61 -462.96,472.51 0,6.89 33.41,44.54 91.75,102.34 69.47,69.48 94.39,91.22 104.47,91.22 10.6,0 94.39,-81.14 399.32,-386.07 242.35,-242.35 385.54,-389.25 385.54,-395.61 0,-5.83 -29.7,-40.3 -71.6,-82.73 -75.3,-75.83 -81.13,-85.91 -60.98,-106.06 10.61,-10.61 16.97,-12.73 31.82,-10.61 12.19,1.06 158.56,148.49 170.76,171.82 19.62,38.19 21.21,36.6 -181.37,239.17 -176.06,176.07 -185.61,187.2 -185.61,205.23 0,14.85 3.18,22.28 13.79,30.23 29.7,23.34 28.11,24.93 228.56,-176.06 129.93,-129.4 190.91,-194.1 199.4,-210.53 9.01,-18.03 11.67,-33.41 11.67,-63.64 0,-35.53 -2.13,-43.49 -18.56,-72.65l-18.03 -32.88 13.78 -14.85c26.52,-28.64 32.88,-57.28 18.03,-85.38 -9.01,-16.97 -123.03,-129.93 -139.47,-138.41 -11.67,-5.84 -45.61,-7.43 -59.92,-2.12l0 0z"/>
    <path class="fil1" d="M2731.21 2740.1c-2.65,5.3 -19.62,54.09 -38.18,109.24 -45.61,134.17 -51.44,129.4 92.27,81.67 90.69,-30.23 108.72,-37.65 111.37,-47.2 2.12,-9.54 -10.08,-24.92 -66.82,-82.2 -71.06,-71.59 -88.03,-82.19 -98.64,-61.51l0 0z"/>
   </g>
  </g>
 </g>
</svg>
