<?xml version="1.0" encoding="UTF-8"?>
<!DOCTYPE svg PUBLIC "-//W3C//DTD SVG 1.1//EN" "http://www.w3.org/Graphics/SVG/1.1/DTD/svg11.dtd">
<!-- Creator: CorelDRAW -->
<svg xmlns="http://www.w3.org/2000/svg" xml:space="preserve" width="183mm" height="133.32mm" version="1.1" style="shape-rendering:geometricPrecision; text-rendering:geometricPrecision; image-rendering:optimizeQuality; fill-rule:evenodd; clip-rule:evenodd"
viewBox="0 0 18300 13332"
 xmlns:xlink="http://www.w3.org/1999/xlink"
 xmlns:xodm="http://www.corel.com/coreldraw/odm/2003">
 <defs>
  <style type="text/css">
   <![CDATA[
    .fil0 {fill:#F6F6F6}
   ]]>
  </style>
 </defs>
 <g id="Camada_x0020_1">
  <metadata id="CorelCorpID_0Corel-Layer"/>
  <path class="fil0" d="M2719.54 793.7c4285.09,-442.38 8570.17,-429.32 12855.26,0 1124.04,112.62 1824.46,947.84 2053.95,2053.97 528.38,2546.75 437.41,5093.49 0,7640.24 -191.23,1113.39 -929.65,1943.93 -2053.95,2053.97 -4285.09,419.41 -8570.17,472.54 -12855.26,0 -1122.86,-123.82 -1850.28,-942.79 -2053.95,-2053.97 -466.91,-2547.33 -515.87,-5094.13 0,-7640.24 224.33,-1107.19 930.25,-1937.96 2053.95,-2053.97zm8720.08 5878.03l-4590.7 -2658.86 0.21 5317.72 4590.49 -2658.86z"/>
 </g>
</svg>
