<?xml version="1.0" encoding="UTF-8"?>
<svg xmlns="http://www.w3.org/2000/svg" xmlns:xlink="http://www.w3.org/1999/xlink" width="121px" height="128px" viewBox="0 0 121 127" version="1.1">
<g id="surface1">
<path style=" stroke:none;fill-rule:evenodd;fill:rgb(96.862745%,96.862745%,96.862745%);fill-opacity:1;" d="M -0.03125 0.0273438 L 120.800781 0.0273438 L 120.800781 108.113281 L 60.585938 127.144531 L -0.03125 108.113281 Z M -0.03125 0.0273438 "/>
<path style=" stroke:none;fill-rule:evenodd;fill:rgb(12.54902%,16.078431%,21.960784%);fill-opacity:1;" d="M 12.570312 13.125 L 108.199219 13.125 L 86.8125 31.429688 L 72.3125 31.429688 L 72.3125 91.484375 L 60.386719 100.328125 L 48.457031 91.484375 L 48.457031 31.429688 L 33.960938 31.429688 Z M 45.71875 27.832031 C 44.835938 27.832031 44.167969 27.582031 43.71875 27.082031 C 43.265625 26.582031 43.039062 25.867188 43.039062 24.933594 L 43.039062 24.277344 L 44.757812 24.277344 L 44.757812 25.066406 C 44.757812 25.8125 45.074219 26.1875 45.699219 26.1875 C 46.007812 26.1875 46.242188 26.09375 46.402344 25.914062 C 46.5625 25.734375 46.644531 25.4375 46.644531 25.035156 C 46.644531 24.550781 46.53125 24.125 46.3125 23.757812 C 46.09375 23.390625 45.683594 22.949219 45.089844 22.433594 C 44.339844 21.773438 43.816406 21.179688 43.519531 20.644531 C 43.222656 20.113281 43.074219 19.511719 43.074219 18.84375 C 43.074219 17.933594 43.304688 17.226562 43.769531 16.726562 C 44.230469 16.226562 44.902344 15.980469 45.785156 15.980469 C 46.652344 15.980469 47.3125 16.226562 47.757812 16.726562 C 48.203125 17.226562 48.425781 17.945312 48.425781 18.875 L 48.425781 19.355469 L 46.707031 19.355469 L 46.707031 18.761719 C 46.707031 18.367188 46.632812 18.078125 46.476562 17.898438 C 46.324219 17.714844 46.097656 17.625 45.800781 17.625 C 45.195312 17.625 44.890625 17.992188 44.890625 18.726562 C 44.890625 19.144531 45.003906 19.535156 45.230469 19.898438 C 45.457031 20.257812 45.867188 20.699219 46.460938 21.214844 C 47.222656 21.871094 47.746094 22.46875 48.03125 23.007812 C 48.316406 23.546875 48.460938 24.175781 48.460938 24.902344 C 48.460938 25.84375 48.226562 26.570312 47.757812 27.074219 C 47.289062 27.578125 46.609375 27.832031 45.71875 27.832031 Z M 50.636719 16.144531 L 53.316406 16.144531 C 54.21875 16.144531 54.894531 16.386719 55.347656 16.867188 C 55.800781 17.351562 56.023438 18.058594 56.023438 18.992188 L 56.023438 20.128906 C 56.023438 21.058594 55.800781 21.769531 55.347656 22.25 C 54.894531 22.734375 54.21875 22.976562 53.316406 22.976562 L 52.457031 22.976562 L 52.457031 27.667969 L 50.636719 27.667969 Z M 53.316406 21.328125 C 53.613281 21.328125 53.835938 21.246094 53.984375 21.082031 C 54.132812 20.917969 54.207031 20.636719 54.207031 20.242188 L 54.207031 18.875 C 54.207031 18.480469 54.132812 18.203125 53.984375 18.035156 C 53.835938 17.871094 53.613281 17.789062 53.316406 17.789062 L 52.457031 17.789062 L 52.457031 21.328125 Z M 58.980469 16.144531 L 61.441406 16.144531 L 63.328125 27.667969 L 61.507812 27.667969 L 61.179688 25.378906 L 61.179688 25.410156 L 59.113281 25.410156 L 58.78125 27.667969 L 57.097656 27.667969 Z M 60.964844 23.847656 L 60.152344 18.152344 L 60.121094 18.152344 L 59.328125 23.847656 Z M 67.867188 27.832031 C 66.996094 27.832031 66.332031 27.585938 65.875 27.089844 C 65.417969 26.597656 65.191406 25.898438 65.191406 25 L 65.191406 18.808594 C 65.191406 17.910156 65.417969 17.214844 65.875 16.71875 C 66.332031 16.226562 66.996094 15.980469 67.867188 15.980469 C 68.738281 15.980469 69.402344 16.226562 69.859375 16.71875 C 70.316406 17.214844 70.542969 17.910156 70.542969 18.808594 L 70.542969 20.027344 L 68.824219 20.027344 L 68.824219 18.695312 C 68.824219 17.980469 68.523438 17.625 67.917969 17.625 C 67.3125 17.625 67.007812 17.980469 67.007812 18.695312 L 67.007812 25.132812 C 67.007812 25.835938 67.3125 26.1875 67.917969 26.1875 C 68.523438 26.1875 68.824219 25.835938 68.824219 25.132812 L 68.824219 23.371094 L 70.542969 23.371094 L 70.542969 25 C 70.542969 25.898438 70.316406 26.597656 69.859375 27.089844 C 69.402344 27.585938 68.738281 27.832031 67.867188 27.832031 Z M 72.773438 16.144531 L 77.730469 16.144531 L 77.730469 17.789062 L 74.589844 17.789062 L 74.589844 20.835938 L 77.085938 20.835938 L 77.085938 22.480469 L 74.589844 22.480469 L 74.589844 26.019531 L 77.730469 26.019531 L 77.730469 27.667969 L 72.773438 27.667969 Z M 72.773438 16.144531 "/>
<path style=" stroke:none;fill-rule:evenodd;fill:rgb(100%,63.921569%,0.392157%);fill-opacity:1;" d="M 12.585938 92.78125 L 12.585938 17.875 L 32.695312 34.628906 L 32.695312 51.726562 L 38.210938 46.921875 L 45.039062 46.929688 L 45.039062 65.773438 Z M 12.585938 92.78125 "/>
<path style=" stroke:none;fill-rule:evenodd;fill:rgb(100%,63.921569%,0.392157%);fill-opacity:1;" d="M 108.183594 92.78125 L 108.183594 17.875 L 88.074219 34.628906 L 88.074219 51.726562 L 82.558594 46.921875 L 75.730469 46.929688 L 75.730469 65.773438 Z M 108.183594 92.78125 "/>
</g>
</svg>
