<?xml version="1.0" encoding="UTF-8"?>
<!DOCTYPE svg PUBLIC "-//W3C//DTD SVG 1.1//EN" "http://www.w3.org/Graphics/SVG/1.1/DTD/svg11.dtd">
<!-- Creator: CorelDRAW -->
<svg xmlns="http://www.w3.org/2000/svg" xml:space="preserve" width="47.35mm" height="50mm" version="1.1" style="shape-rendering:geometricPrecision; text-rendering:geometricPrecision; image-rendering:optimizeQuality; fill-rule:evenodd; clip-rule:evenodd"
viewBox="0 0 4735 5000"
 xmlns:xlink="http://www.w3.org/1999/xlink"
 xmlns:xodm="http://www.corel.com/coreldraw/odm/2003">
 <defs>
  <style type="text/css">
   <![CDATA[
    .fil1 {fill:#202938}
    .fil0 {fill:#F7F7F7}
    .fil2 {fill:#FFA301}
   ]]>
  </style>
 </defs>
 <g id="Camada_x0020_1">
  <metadata id="CorelCorpID_0Corel-Layer"/>
  <g id="_1448580955328">
   <polygon class="fil0" points="-1.21,1.07 4733.56,1.07 4733.56,4252.39 2374.09,5001.05 -1.21,4252.39 "/>
   <g>
    <path class="fil1" d="M492.51 516.32l3747.28 0 -838.15 719.92 -568.08 0 0 2362.18 -467.38 347.76 -467.47 -347.76 0 -2362.18 -568.02 0 -838.18 -719.92zm1298.91 578.39c-34.54,0 -60.65,-9.81 -78.35,-29.45 -17.7,-19.64 -26.55,-47.82 -26.55,-84.51l0 -25.9 67.35 0 0 31.08c0,29.36 12.29,44.04 36.9,44.04 12.09,0 21.26,-3.56 27.52,-10.69 6.26,-7.12 9.39,-18.67 9.39,-34.64 0,-19 -4.32,-35.72 -12.95,-50.18 -8.63,-14.47 -24.6,-31.84 -47.91,-52.13 -29.36,-25.9 -49.86,-49.32 -61.52,-70.25 -11.65,-20.94 -17.48,-44.57 -17.48,-70.91 0,-35.82 9.06,-63.57 27.2,-83.21 18.12,-19.64 44.45,-29.45 78.99,-29.45 34.1,0 59.9,9.81 77.38,29.45 17.48,19.64 26.23,47.82 26.23,84.51l0 18.78 -67.35 0 0 -23.31c0,-15.54 -3.02,-26.88 -9.07,-34 -6.04,-7.13 -14.89,-10.68 -26.54,-10.68 -23.74,0 -35.62,14.46 -35.62,43.38 0,16.4 4.43,31.73 13.28,45.98 8.85,14.24 24.93,31.5 48.24,51.8 29.79,25.9 50.29,49.42 61.51,70.58 11.23,21.15 16.83,45.97 16.83,74.45 0,37.14 -9.17,65.62 -27.51,85.48 -18.35,19.85 -45.01,29.78 -79.97,29.78zm192.82 -459.73l104.9 0c35.4,0 61.95,9.49 79.65,28.49 17.69,18.99 26.54,46.84 26.54,83.53l0 44.68c0,36.69 -8.85,64.53 -26.54,83.53 -17.7,18.99 -44.25,28.49 -79.65,28.49l-33.67 0 0 184.54 -71.23 0 0 -453.26zm104.9 203.97c11.65,0 20.4,-3.24 26.23,-9.72 5.82,-6.47 8.74,-17.48 8.74,-33.02l0 -53.74c0,-15.54 -2.92,-26.55 -8.74,-33.02 -5.83,-6.48 -14.58,-9.72 -26.23,-9.72l-33.67 0 0 139.22 33.67 0zm221.97 -203.97l96.48 0 73.82 453.26 -71.23 0 -12.95 -90.01 0 1.3 -80.94 0 -12.95 88.71 -66.05 0 73.82 -453.26zm77.71 303.04l-31.73 -224.04 -1.3 0 -31.08 224.04 64.11 0zm270.53 156.69c-34.1,0 -60.11,-9.7 -78.03,-29.13 -17.92,-19.43 -26.87,-46.84 -26.87,-82.24l0 -243.46c0,-35.4 8.95,-62.81 26.87,-82.24 17.92,-19.43 43.93,-29.13 78.03,-29.13 34.1,0 60.11,9.7 78.02,29.13 17.92,19.43 26.87,46.84 26.87,82.24l0 47.91 -67.34 0 0 -52.44c0,-28.06 -11.87,-42.09 -35.61,-42.09 -23.75,0 -35.61,14.03 -35.61,42.09l0 253.18c0,27.62 11.86,41.44 35.61,41.44 23.74,0 35.61,-13.82 35.61,-41.44l0 -69.29 67.34 0 0 64.1c0,35.4 -8.95,62.81 -26.87,82.24 -17.91,19.43 -43.92,29.13 -78.02,29.13zm192.17 -459.73l194.26 0 0 64.75 -123.03 0 0 119.79 97.78 0 0 64.75 -97.78 0 0 139.22 123.03 0 0 64.75 -194.26 0 0 -453.26z"/>
    <g>
     <polygon class="fil2" points="493.14,3649.4 493.14,703.11 1281.2,1362.11 1281.2,2034.63 1497.35,1845.59 1764.81,1845.86 1764.81,2587.14 "/>
     <polygon class="fil2" points="4239.16,3649.4 4239.16,703.11 3451.1,1362.11 3451.1,2034.63 3234.95,1845.59 2967.49,1845.86 2967.49,2587.14 "/>
    </g>
   </g>
  </g>
 </g>
</svg>
