<?xml version="1.0" encoding="UTF-8"?>
<!DOCTYPE svg PUBLIC "-//W3C//DTD SVG 1.1//EN" "http://www.w3.org/Graphics/SVG/1.1/DTD/svg11.dtd">
<!-- Creator: CorelDRAW -->
<svg xmlns="http://www.w3.org/2000/svg" xml:space="preserve" width="1.6932mm" height="1.7812mm" version="1.1" style="shape-rendering:geometricPrecision; text-rendering:geometricPrecision; image-rendering:optimizeQuality; fill-rule:evenodd; clip-rule:evenodd"
viewBox="0 0 169.32 178.12"
 xmlns:xlink="http://www.w3.org/1999/xlink"
 xmlns:xodm="http://www.corel.com/coreldraw/odm/2003">
 <defs>
  <style type="text/css">
   <![CDATA[
    .fil1 {fill:#202938}
    .fil0 {fill:#F7F7F7}
    .fil2 {fill:#FFA301}
   ]]>
  </style>
 </defs>
 <g id="Camada_x0020_1">
  <metadata id="CorelCorpID_0Corel-Layer"/>
  <g id="surface1">
   <path class="fil0" d="M-3.05 2.28l169.32 0 0 151.44 -84.38 26.67 -84.94 -26.67 0 -151.44zm0 0z"/>
   <path class="fil1" d="M14.61 20.63l134 0 -29.97 25.64 -20.32 0 0 84.15 -16.71 12.39 -16.71 -12.39 0 -84.15 -20.32 0 -29.97 -25.64zm46.45 20.6c-1.24,0 -2.17,-0.35 -2.8,-1.05 -0.64,-0.7 -0.95,-1.7 -0.95,-3.01l0 -0.92 2.4 0 0 1.11c0,1.04 0.45,1.57 1.32,1.57 0.44,0 0.76,-0.13 0.99,-0.38 0.22,-0.26 0.34,-0.67 0.34,-1.24 0,-0.67 -0.16,-1.27 -0.47,-1.78 -0.3,-0.52 -0.88,-1.14 -1.71,-1.86 -1.05,-0.93 -1.79,-1.76 -2.2,-2.51 -0.42,-0.74 -0.63,-1.58 -0.63,-2.52 0,-1.28 0.33,-2.27 0.98,-2.97 0.64,-0.7 1.59,-1.04 2.82,-1.04 1.22,0 2.14,0.34 2.77,1.04 0.62,0.7 0.93,1.71 0.93,3.01l0 0.68 -2.41 0 0 -0.84c0,-0.55 -0.1,-0.95 -0.32,-1.2 -0.21,-0.26 -0.53,-0.39 -0.95,-0.39 -0.84,0 -1.27,0.52 -1.27,1.55 0,0.58 0.16,1.13 0.48,1.64 0.31,0.5 0.89,1.12 1.72,1.84 1.07,0.92 1.8,1.76 2.2,2.51 0.4,0.76 0.6,1.64 0.6,2.66 0,1.32 -0.33,2.34 -0.98,3.04 -0.66,0.71 -1.61,1.06 -2.86,1.06zm6.89 -16.37l3.76 0c1.26,0 2.21,0.34 2.84,1.01 0.64,0.68 0.95,1.67 0.95,2.98l0 1.59c0,1.3 -0.31,2.3 -0.95,2.97 -0.63,0.68 -1.58,1.02 -2.84,1.02l-1.21 0 0 6.57 -2.55 0 0 -16.14zm3.76 7.26c0.41,0 0.72,-0.11 0.93,-0.34 0.21,-0.23 0.31,-0.63 0.31,-1.18l0 -1.92c0,-0.55 -0.1,-0.94 -0.31,-1.17 -0.21,-0.23 -0.52,-0.35 -0.93,-0.35l-1.21 0 0 4.96 1.21 0zm7.93 -7.26l3.45 0 2.64 16.14 -2.55 0 -0.46 -3.2 0 0.04 -2.89 0 -0.47 3.16 -2.36 0 2.64 -16.14zm2.78 10.79l-1.14 -7.98 -0.04 0 -1.11 7.98 2.29 0zm9.67 5.58c-1.22,0 -2.15,-0.34 -2.79,-1.04 -0.64,-0.69 -0.95,-1.67 -0.95,-2.92l0 -8.68c0,-1.26 0.31,-2.23 0.95,-2.93 0.64,-0.69 1.57,-1.03 2.79,-1.03 1.22,0 2.16,0.34 2.8,1.03 0.64,0.7 0.95,1.67 0.95,2.93l0 1.71 -2.4 0 0 -1.87c0,-1 -0.43,-1.5 -1.27,-1.5 -0.85,0 -1.28,0.5 -1.28,1.5l0 9.02c0,0.99 0.43,1.48 1.28,1.48 0.84,0 1.27,-0.49 1.27,-1.48l0 -2.47 2.4 0 0 2.29c0,1.25 -0.31,2.23 -0.95,2.92 -0.64,0.7 -1.58,1.04 -2.8,1.04zm6.88 -16.37l6.94 0 0 2.3 -4.4 0 0 4.27 3.5 0 0 2.31 -3.5 0 0 4.95 4.4 0 0 2.31 -6.94 0 0 -16.14zm0 0z"/>
   <path class="fil2" d="M14.63 132.24l0 -104.96 28.18 23.48 0 23.95 7.73 -6.73 9.57 0.01 0 26.41 -45.48 37.84zm0 0z"/>
   <path class="fil2" d="M148.59 132.24l0 -104.96 -28.18 23.48 0 23.95 -7.73 -6.73 -9.57 0.01 0 26.41 45.48 37.84zm0 0z"/>
  </g>
 </g>
</svg>
