<?xml version="1.0" encoding="UTF-8"?>
<!DOCTYPE svg PUBLIC "-//W3C//DTD SVG 1.1//EN" "http://www.w3.org/Graphics/SVG/1.1/DTD/svg11.dtd">
<!-- Creator: CorelDRAW -->
<svg xmlns="http://www.w3.org/2000/svg" xml:space="preserve" width="8.4666mm" height="8.9406mm" version="1.1" style="shape-rendering:geometricPrecision; text-rendering:geometricPrecision; image-rendering:optimizeQuality; fill-rule:evenodd; clip-rule:evenodd"
viewBox="0 0 846.66 894.06"
 xmlns:xlink="http://www.w3.org/1999/xlink"
 xmlns:xodm="http://www.corel.com/coreldraw/odm/2003">
 <defs>
  <style type="text/css">
   <![CDATA[
    .fil1 {fill:#202938}
    .fil0 {fill:#F7F7F7}
    .fil2 {fill:#FFA301}
   ]]>
  </style>
 </defs>
 <g id="Camada_x0020_1">
  <metadata id="CorelCorpID_0Corel-Layer"/>
  <g id="_1448580955328">
   <polygon class="fil0" points="-1.33,1.04 845.34,1.04 845.34,761.26 423.42,895.14 -1.33,761.26 "/>
   <g>
    <path class="fil1" d="M86.96 93.18l670.09 0 -149.88 128.74 -101.58 0 0 422.4 -83.58 62.18 -83.59 -62.18 0 -422.4 -101.58 0 -149.88 -128.74zm232.27 103.43c-6.17,0 -10.84,-1.76 -14.01,-5.27 -3.16,-3.51 -4.75,-8.55 -4.75,-15.11l0 -4.63 12.05 0 0 5.56c0,5.25 2.19,7.87 6.6,7.87 2.16,0 3.8,-0.64 4.92,-1.91 1.12,-1.27 1.68,-3.34 1.68,-6.19 0,-3.4 -0.78,-6.39 -2.32,-8.98 -1.54,-2.58 -4.4,-5.69 -8.57,-9.32 -5.25,-4.63 -8.91,-8.82 -11,-12.56 -2.08,-3.75 -3.12,-7.97 -3.12,-12.68 0,-6.41 1.62,-11.37 4.86,-14.88 3.24,-3.51 7.95,-5.27 14.12,-5.27 6.1,0 10.72,1.76 13.84,5.27 3.13,3.51 4.69,8.55 4.69,15.11l0 3.36 -12.04 0 0 -4.17c0,-2.78 -0.54,-4.81 -1.62,-6.08 -1.08,-1.27 -2.67,-1.91 -4.75,-1.91 -4.24,0 -6.37,2.59 -6.37,7.76 0,2.93 0.79,5.67 2.38,8.22 1.58,2.55 4.45,5.63 8.62,9.26 5.33,4.63 9,8.84 11,12.62 2.01,3.79 3.01,8.22 3.01,13.32 0,6.64 -1.64,11.73 -4.92,15.28 -3.28,3.55 -8.05,5.33 -14.3,5.33zm34.48 -82.21l18.76 0c6.33,0 11.08,1.7 14.24,5.09 3.17,3.4 4.75,8.38 4.75,14.94l0 7.99c0,6.56 -1.58,11.54 -4.75,14.94 -3.16,3.39 -7.91,5.09 -14.24,5.09l-6.02 0 0 33 -12.74 0 0 -81.05zm18.76 36.47c2.08,0 3.65,-0.58 4.69,-1.73 1.04,-1.16 1.56,-3.13 1.56,-5.91l0 -9.61c0,-2.78 -0.52,-4.75 -1.56,-5.9 -1.04,-1.16 -2.61,-1.74 -4.69,-1.74l-6.02 0 0 24.89 6.02 0zm39.69 -36.47l17.25 0 13.21 81.05 -12.74 0 -2.32 -16.09 0 0.23 -14.47 0 -2.32 15.86 -11.81 0 13.2 -81.05zm13.9 54.19l-5.68 -40.06 -0.23 0 -5.56 40.06 11.47 0zm48.37 28.02c-6.09,0 -10.74,-1.74 -13.95,-5.21 -3.2,-3.48 -4.8,-8.38 -4.8,-14.71l0 -43.53c0,-6.33 1.6,-11.23 4.8,-14.71 3.21,-3.47 7.86,-5.21 13.95,-5.21 6.1,0 10.75,1.74 13.96,5.21 3.2,3.48 4.8,8.38 4.8,14.71l0 8.57 -12.04 0 0 -9.38c0,-5.02 -2.12,-7.53 -6.37,-7.53 -4.25,0 -6.37,2.51 -6.37,7.53l0 45.27c0,4.94 2.12,7.41 6.37,7.41 4.25,0 6.37,-2.47 6.37,-7.41l0 -12.39 12.04 0 0 11.46c0,6.33 -1.6,11.23 -4.8,14.71 -3.21,3.47 -7.86,5.21 -13.96,5.21zm34.37 -82.21l34.74 0 0 11.58 -22 0 0 21.42 17.48 0 0 11.58 -17.48 0 0 24.89 22 0 0 11.58 -34.74 0 0 -81.05z"/>
    <g>
     <polygon class="fil2" points="87.07,653.43 87.07,126.58 227.99,244.42 227.99,364.68 266.65,330.88 314.47,330.93 314.47,463.48 "/>
     <polygon class="fil2" points="756.94,653.43 756.94,126.58 616.02,244.42 616.02,364.68 577.36,330.88 529.54,330.93 529.54,463.48 "/>
    </g>
   </g>
  </g>
 </g>
</svg>
